<svg xmlns="http://www.w3.org/2000/svg" viewBox="0 0 240 240"><defs><linearGradient id="bg" x1="0" x2="1" y1="0" y2="1"><stop stop-color="#2a1d22"/><stop offset="1" stop-color="#10131b"/></linearGradient><linearGradient id="suit" x1="0" x2="1"><stop stop-color="#182033"/><stop offset="1" stop-color="#29324b"/></linearGradient></defs><rect width="240" height="240" rx="48" fill="url(#bg)"/><circle cx="48" cy="42" r="68" fill="#7c9cff" opacity=".13"/><path d="M50 207c10-50 42-74 72-74s62 24 71 74" fill="url(#suit)"/><path d="M93 145l29 62 29-62c-16 11-42 11-58 0z" fill="#fff3e0"/><circle cx="122" cy="91" r="44" fill="#d3a47b"/><path d="M76 97c-3-46 24-69 58-62 32 7 46 34 37 70-16-32-55-39-95-8z" fill="#2b1b17"/><path d="M78 96c2 38 10 62 27 77-35-7-53-50-27-77z" fill="#2b1b17"/><path d="M167 96c-2 38-10 62-27 77 35-7 53-50 27-77z" fill="#2b1b17"/><circle cx="106" cy="95" r="5" fill="#181310"/><circle cx="139" cy="95" r="5" fill="#181310"/><path d="M110 119c8 8 20 8 28 0" fill="none" stroke="#8b463c" stroke-width="5" stroke-linecap="round"/><path d="M82 208h80l-15-59-25 58-25-58z" fill="#151b2a"/><path d="M90 166h64" stroke="#d9aa5b" stroke-width="4" stroke-linecap="round" opacity=".55"/></svg>