<svg xmlns="http://www.w3.org/2000/svg" viewBox="0 0 240 240"><defs><linearGradient id="bg" x1="0" x2="1" y1="0" y2="1"><stop stop-color="#232b3b"/><stop offset="1" stop-color="#0d121d"/></linearGradient><linearGradient id="robe" x1="0" x2="1"><stop stop-color="#111827"/><stop offset="1" stop-color="#253047"/></linearGradient></defs><rect width="240" height="240" rx="48" fill="url(#bg)"/><circle cx="194" cy="38" r="58" fill="#d9aa5b" opacity=".18"/><path d="M54 205c8-49 40-73 67-73s59 24 67 73" fill="url(#robe)"/><path d="M92 141l29 64 29-64c-15 9-42 9-58 0z" fill="#f4f0e8"/><path d="M105 153l16 52 16-52" fill="#d9aa5b"/><circle cx="121" cy="89" r="43" fill="#c98f64"/><path d="M80 88c4-41 30-62 65-47 20 9 30 28 23 55-20-21-58-23-88-8z" fill="#191716"/><circle cx="105" cy="92" r="5" fill="#141414"/><circle cx="137" cy="92" r="5" fill="#141414"/><path d="M107 116c9 7 20 7 29 0" fill="none" stroke="#6b332c" stroke-width="5" stroke-linecap="round"/><path d="M78 206h86l-17-58-26 57-26-57z" fill="#101521" opacity=".95"/><path d="M68 209h106" stroke="#d9aa5b" stroke-width="5" stroke-linecap="round" opacity=".55"/></svg>