<svg xmlns="http://www.w3.org/2000/svg" viewBox="0 0 240 240"><defs><linearGradient id="bg" x1="0" x2="1" y1="0" y2="1"><stop stop-color="#1b2435"/><stop offset="1" stop-color="#0b0e14"/></linearGradient><linearGradient id="j" x1="0" x2="1"><stop stop-color="#0f1728"/><stop offset="1" stop-color="#303a53"/></linearGradient></defs><rect width="240" height="240" rx="48" fill="url(#bg)"/><circle cx="190" cy="190" r="82" fill="#d9aa5b" opacity=".12"/><path d="M50 207c9-51 42-76 72-76s62 25 72 76" fill="url(#j)"/><path d="M95 144l27 63 27-63c-17 11-38 11-54 0z" fill="#f6efe2"/><path d="M108 158l14 48 14-48" fill="#7c9cff"/><circle cx="122" cy="88" r="43" fill="#b98260"/><path d="M82 82c6-35 30-54 61-42 21 8 31 27 23 55-22-20-55-21-84-13z" fill="#1f1712"/><path d="M93 119c18 20 39 20 58 0-2 24-13 37-29 37s-27-13-29-37z" fill="#2d1713" opacity=".55"/><circle cx="106" cy="92" r="5" fill="#120f0d"/><circle cx="138" cy="92" r="5" fill="#120f0d"/><path d="M110 116c8 6 17 6 25 0" fill="none" stroke="#5b2f2b" stroke-width="5" stroke-linecap="round"/><path d="M86 208h74l-12-58-26 57-24-57z" fill="#111827"/><path d="M92 77c18-11 42-10 59 2" fill="none" stroke="#0e0b09" stroke-width="8" stroke-linecap="round"/></svg>