<svg width="720" height="620" viewBox="0 0 720 620" fill="none" xmlns="http://www.w3.org/2000/svg" role="img" aria-labelledby="title desc">
  <title id="title">Modern hukuk ofisi illüstrasyonu</title>
  <desc id="desc">Adalet terazisi, sütunlar ve dosya panellerinden oluşan şık hukuk görseli.</desc>
  <defs>
    <linearGradient id="gold" x1="133" y1="86" x2="556" y2="520" gradientUnits="userSpaceOnUse">
      <stop stop-color="#F7DFA3"/>
      <stop offset="1" stop-color="#B77A28"/>
    </linearGradient>
    <linearGradient id="glass" x1="129" y1="74" x2="617" y2="542" gradientUnits="userSpaceOnUse">
      <stop stop-color="#FFFFFF" stop-opacity="0.22"/>
      <stop offset="1" stop-color="#FFFFFF" stop-opacity="0.04"/>
    </linearGradient>
    <filter id="shadow" x="50" y="30" width="620" height="560" filterUnits="userSpaceOnUse" color-interpolation-filters="sRGB">
      <feDropShadow dx="0" dy="24" stdDeviation="28" flood-color="#000000" flood-opacity="0.28"/>
    </filter>
  </defs>
  <circle cx="360" cy="302" r="246" fill="url(#glass)" stroke="#FFFFFF" stroke-opacity="0.13"/>
  <circle cx="360" cy="302" r="182" fill="#101522" stroke="#D9AA5B" stroke-opacity="0.2"/>
  <g filter="url(#shadow)">
    <path d="M360 104V430" stroke="url(#gold)" stroke-width="18" stroke-linecap="round"/>
    <path d="M226 173H494" stroke="url(#gold)" stroke-width="18" stroke-linecap="round"/>
    <path d="M236 184L148 360H324L236 184Z" fill="#11192B" stroke="url(#gold)" stroke-width="10" stroke-linejoin="round"/>
    <path d="M484 184L396 360H572L484 184Z" fill="#11192B" stroke="url(#gold)" stroke-width="10" stroke-linejoin="round"/>
    <path d="M164 361H309" stroke="#F4D796" stroke-width="14" stroke-linecap="round"/>
    <path d="M411 361H556" stroke="#F4D796" stroke-width="14" stroke-linecap="round"/>
    <path d="M276 448H444" stroke="url(#gold)" stroke-width="20" stroke-linecap="round"/>
    <path d="M311 493H409" stroke="#F4D796" stroke-width="18" stroke-linecap="round"/>
  </g>
  <rect x="86" y="424" width="156" height="94" rx="24" fill="#0C111D" stroke="#FFFFFF" stroke-opacity="0.14"/>
  <path d="M117 457H209" stroke="#D9AA5B" stroke-width="8" stroke-linecap="round"/>
  <path d="M117 484H186" stroke="#FFFFFF" stroke-opacity="0.28" stroke-width="8" stroke-linecap="round"/>
  <rect x="478" y="70" width="156" height="112" rx="28" fill="#0C111D" stroke="#FFFFFF" stroke-opacity="0.14"/>
  <path d="M510 108H602" stroke="#D9AA5B" stroke-width="8" stroke-linecap="round"/>
  <path d="M510 136H572" stroke="#FFFFFF" stroke-opacity="0.28" stroke-width="8" stroke-linecap="round"/>
  <circle cx="124" cy="132" r="11" fill="#F4D796"/>
  <circle cx="603" cy="466" r="15" fill="#D9AA5B" opacity="0.75"/>
  <circle cx="98" cy="300" r="7" fill="#FFFFFF" opacity="0.4"/>
</svg>
